# xmcd
#
# Track frame offsets:
#	150
#	14847
#	32027
#	46642
#	62827
#	79960
#	95850
#	111617
#	126597
#	138950
#	153072
#	170052
#
# Disc length: 2481 seconds
#
# Revision: 1
# Processed by: cddbd v1.4PL0 Copyright (c) Steve Scherf et al.
# Submitted via: audiograbber 1.81.02
#
DISCID=ac09af0c
DTITLE=VIVIANE TRIPODI - TOMARA QUE CAIA
DYEAR=2003
DGENRE=
TTITLE0=SEGURA ESSE SAMBA
TTITLE1=VAI AMANHECER
TTITLE2=DIGA AI MEU REI
TTITLE3=VOCE TOCOU MEU CORACAO
TTITLE4=BATUQUE
TTITLE5=TOMARA QUE CAIA
TTITLE6=CARNAVAL EM SALVADOR
TTITLE7=VOCE ME DISSE NAO
TTITLE8=MORRENDO DE PAIXAO
TTITLE9=ME BEIJA
TTITLE10=WMBAIXO DO TRIO
TTITLE11=GONZAGUEANDO
EXTD=
EXTT0=
EXTT1=
EXTT2=
EXTT3=
EXTT4=
EXTT5=
EXTT6=
EXTT7=
EXTT8=
EXTT9=
EXTT10=
EXTT11=
PLAYORDER=
